# xmcd
#
# Track frame offsets:
#	150
#	19557
#	34760
#	48957
#	61325
#	80162
#	94340
#	109727
#	125595
#	145410
#	161057
#	177225
#	197815
#	212567
#	229302
#	249957
#
# Disc length: 3545 seconds
#
# Revision: 3
# Processed by: cddbd v1.5.2PL0 Copyright (c) Steve Scherf et al.
# Submitted via: audiograbber 1.83.01
#
DISCID=e00dd710
DTITLE=Vikki Carr - Latin Stars - 16 Exitos
DYEAR=1998
DGENRE=Latin
TTITLE0=Cosas Del Amor
TTITLE1=Disculpame
TTITLE2=Somos Novios (It's Impossible)
TTITLE3=Ni Princesa Ni Esclava
TTITLE4=Grande, Grande, Grande
TTITLE5=Hay Otro En Tu Lugar
TTITLE6=Todo Me Gusta De Ti
TTITLE7=Total
TTITLE8=Mala Suerte
TTITLE9=Oyeme
TTITLE10=Dos Corazones
TTITLE11=Esos Hombres
TTITLE12=Eso No
TTITLE13=Esta Noche Vendras
TTITLE14=Yo Sigo Siendo Como Soy
TTITLE15=El Tiempo Que Te Quede Libre
EXTD=
EXTT0=
EXTT1=
EXTT2=
EXTT3=
EXTT4=
EXTT5=
EXTT6=
EXTT7=
EXTT8=
EXTT9=
EXTT10=
EXTT11=
EXTT12=
EXTT13=
EXTT14=
EXTT15=
PLAYORDER=
